<svg width="66" height="67" viewBox="0 0 66 67" fill="none" xmlns="http://www.w3.org/2000/svg">
<rect x="0.0830078" y="0.416504" width="65.7048" height="65.7048" rx="9" fill="url(#paint0_linear_1567_1513)"/>
<path fill-rule="evenodd" clip-rule="evenodd" d="M32.9355 12.2637C20.9668 12.2637 11.6909 20.9406 11.6909 32.6592C11.6909 38.7893 14.23 44.0859 18.3636 47.7453C18.7097 48.0541 18.9192 48.4814 18.9363 48.9425L19.0518 52.6823C19.0902 53.8754 20.334 54.6495 21.437 54.1715L25.6516 52.3312C26.0107 52.1748 26.4082 52.1451 26.7844 52.2466C28.7207 52.7754 30.7854 53.0546 32.9355 53.0546C44.9042 53.0546 54.1801 44.3777 54.1801 32.6592C54.1801 20.9406 44.9042 12.2637 32.9355 12.2637ZM20.1802 38.6243L26.421 28.8263C27.4127 27.2695 29.5415 26.8803 31.029 27.9844L35.9917 31.6692C36.4491 32.0078 37.0733 32.0035 37.5263 31.6651L44.2288 26.6306C45.1222 25.9581 46.2935 27.0199 45.6907 27.9591L39.4541 37.7528C38.4624 39.3096 36.3338 39.6988 34.8463 38.5946L29.8836 34.9098C29.426 34.5713 28.802 34.5756 28.349 34.9141L21.6421 39.9527C20.7488 40.6253 19.5774 39.5634 20.1802 38.6243Z" fill="white"/>
<defs>
<linearGradient id="paint0_linear_1567_1513" x1="12.3794" y1="66.1216" x2="65.7881" y2="5.11836" gradientUnits="userSpaceOnUse">
<stop stop-color="#008CFB"/>
<stop offset="0.408375" stop-color="#A033FD"/>
<stop offset="0.754454" stop-color="#FF3A9F"/>
<stop offset="1" stop-color="#F7536D"/>
</linearGradient>
</defs>
</svg>
