<svg width="69" height="69" viewBox="0 0 69 69" fill="none" xmlns="http://www.w3.org/2000/svg">
<path d="M0.164062 50.5842V17.9545C0.164062 8.09515 8.14544 0.11377 18.0048 0.11377H50.6345C60.4938 0.11377 68.4752 8.09515 68.4752 17.9545V50.5842C68.4752 60.4435 60.4938 68.4249 50.6345 68.4249H18.0048C8.14544 68.4249 0.164062 60.4435 0.164062 50.5842Z" fill="url(#paint0_linear_1531_386)"/>
<path fill-rule="evenodd" clip-rule="evenodd" d="M50.3993 38.8475C48.7561 37.9085 46.6434 36.7348 44.7654 37.6738C43.3569 38.378 42.4179 40.4907 41.479 41.6645C41.0095 42.3687 40.54 42.3687 39.601 42.134C34.2018 40.0212 29.9764 36.5001 27.1594 31.3356C26.6899 30.6314 26.69 29.9272 27.3942 29.2229C28.3332 28.0492 29.5069 26.8755 29.7417 25.467C29.9764 24.0585 29.2721 22.4153 28.8027 21.0068C28.0984 19.3636 27.1594 17.0161 25.5162 16.0771C24.1077 15.1382 21.995 15.6077 20.8213 16.7814C18.4738 18.6594 17.3001 21.4763 17.5349 24.528C17.5349 25.467 17.5348 26.1712 17.7696 26.8755C18.2391 28.7534 19.1781 30.6314 20.1171 32.2746C20.8213 33.4484 21.7603 34.8568 22.4645 36.0306C25.2815 40.0213 29.0374 43.3077 33.0281 45.8899C35.1408 47.0636 37.2535 48.2374 39.601 48.9416C42.1832 49.8806 44.5307 50.5848 47.3476 50.1153C50.3993 49.6458 53.2163 47.7679 54.39 44.9509C54.6247 44.0119 54.8595 43.0729 54.6247 42.3687C54.1552 40.9602 51.8078 39.7865 50.3993 38.8475Z" fill="white"/>
<defs>
<linearGradient id="paint0_linear_1531_386" x1="63.4667" y1="5.12302" x2="5.37003" y2="63.2196" gradientUnits="userSpaceOnUse">
<stop stop-color="#42FF64"/>
<stop offset="1" stop-color="#00C22B"/>
</linearGradient>
</defs>
</svg>
