<svg width="71" height="68" viewBox="0 0 71 68" fill="none" xmlns="http://www.w3.org/2000/svg">
<path d="M70.38 57.2582C70.38 62.7222 65.9233 67.1789 60.4592 67.1789H10.3822C4.91814 67.1789 0.461426 62.707 0.461426 57.2582V11.0121C0.461426 5.56329 4.91814 1.09131 10.3822 1.09131H60.4592C65.9233 1.09131 70.38 5.54803 70.38 11.0121V57.2582Z" fill="white"/>
<path d="M12.9161 59.074C12.6414 58.9519 12.443 58.8145 12.7635 58.5398C12.9619 58.3719 13.1756 58.2498 13.3893 58.1124C15.3887 56.8151 17.2507 55.3957 18.5023 53.3047C19.5401 51.5647 19.3722 50.5421 18.0902 49.2601C10.8556 42.0255 7.68099 33.3715 9.26831 23.1455C10.1688 17.3762 12.8093 12.3853 16.6555 8.05068C18.9754 5.44075 21.738 3.30397 24.76 1.53349C24.9431 1.42665 25.2026 1.39613 25.2484 1.13666C25.1873 0.984031 25.0652 1.02982 24.9889 1.02982C19.8454 1.02982 14.7171 0.92298 9.57357 1.06035C4.67423 1.18245 0.415931 4.98287 0.431193 10.4469C0.461719 26.366 0.431193 42.3002 0.431193 58.2193C0.431193 63.1644 4.20109 67.3006 9.13095 67.4837C13.2977 67.6516 17.4644 67.5143 21.6464 67.499C21.9516 67.5143 22.2569 67.5295 22.5622 67.5295C29.9188 67.5295 37.2602 67.5295 44.6168 67.5295C50.1114 67.5295 55.606 67.5448 61.1005 67.5143C66.2594 67.4837 70.3192 63.3781 70.3345 58.2193C70.3345 55.243 70.3345 52.2668 70.3345 49.2906C70.3345 49.0769 70.4108 48.848 70.2735 48.619C69.9987 48.6343 69.8919 48.8632 69.7545 49.0159C66.763 52.0073 63.3289 54.3731 59.4674 56.0672C50.0809 60.2034 40.5264 60.4934 30.8346 57.1661C29.9493 56.8609 29.0793 56.8304 28.2094 57.0593C26.9273 57.3951 25.6605 57.7614 24.3937 58.143C20.6085 59.3182 16.8081 59.8371 12.9161 59.074ZM23.9663 33.3563C24.2258 33.0205 24.3632 32.8221 24.531 32.6237C26.5305 30.0901 28.5299 27.5564 30.5293 25.0076C31.1093 24.275 31.6893 23.5271 32.0556 22.6418C32.4677 21.6345 32.025 20.6882 30.9872 20.3219C30.514 20.154 30.0409 20.154 29.5525 20.154C26.8357 20.1388 24.1037 20.1388 21.3869 20.154C21.0054 20.154 20.6238 20.1845 20.2575 20.2914C19.4943 20.5051 19.0365 21.1308 19.0517 21.8634C19.0517 22.5961 19.5249 23.2066 20.288 23.405C20.6543 23.4966 21.0359 23.5271 21.4174 23.5271C23.0658 23.5423 24.7295 23.5271 26.3778 23.5423C26.561 23.5423 26.7899 23.4202 26.9273 23.6797C26.7899 23.8629 26.6526 24.046 26.5152 24.2139C24.1495 27.2054 21.799 30.2122 19.4333 33.2037C18.8533 33.9515 18.5481 34.7757 18.9754 35.6915C19.4028 36.6072 20.2575 36.7751 21.1427 36.8362C21.8601 36.882 22.5622 36.8515 23.2795 36.8515C25.7521 36.8515 28.2094 36.8667 30.6819 36.8362C31.9945 36.8209 32.6966 36.0273 32.5592 34.8062C32.4524 33.86 31.7961 33.341 30.5751 33.3258C28.4383 33.341 26.2863 33.3563 23.9663 33.3563ZM41.6711 25.3281C39.7633 23.6644 37.657 23.5576 35.5965 24.7786C33.1087 26.2439 32.1777 28.6401 32.4982 31.4179C32.7882 34.0126 33.9176 36.1341 36.6344 37.0193C38.3286 37.5688 39.9006 37.3704 41.2895 36.2409C41.6558 35.951 41.7627 36.012 42.0221 36.3325C42.5411 36.9888 43.3653 37.1872 44.1589 36.9278C44.9068 36.6683 45.4257 36.0273 45.4257 35.2031C45.441 32.1505 45.4563 29.098 45.4257 26.0454C45.4105 24.8244 44.2658 24.046 43.0753 24.2902C42.419 24.4123 42.0527 24.8549 41.6711 25.3281ZM52.2482 30.9906C52.1871 34.8062 55.3465 37.6909 59.3148 37.2941C62.9626 36.9278 65.3283 34.1957 65.2062 30.3343C65.0841 26.5186 62.2453 23.9087 58.3533 24.0308C54.7055 24.1376 52.1413 27.068 52.2482 30.9906ZM50.9203 27.9533C50.9203 25.557 50.9356 23.176 50.9203 20.7798C50.9203 19.5588 50.1419 18.7956 48.9819 18.8109C47.8525 18.8262 47.1199 19.5893 47.0894 20.7493C47.0741 21.4666 47.0894 22.1687 47.0894 22.8861C47.0894 26.9307 47.0894 30.9753 47.0894 35.0199C47.0894 35.9662 47.6693 36.7904 48.4325 36.9888C49.7146 37.3093 50.905 36.3936 50.9203 35.0504C50.9356 32.6847 50.9203 30.319 50.9203 27.9533Z" fill="#FDFEFE"/>
<path d="M21.6005 67.5151C17.4338 67.5151 13.2518 67.6525 9.08505 67.4999C4.15519 67.3015 0.385295 63.1653 0.385295 58.2354C0.385295 42.3164 0.41582 26.3821 0.385295 10.463C0.370032 5.01424 4.62833 1.19856 9.52767 1.07646C14.6559 0.939093 19.7995 1.04593 24.943 1.04593C25.0346 1.04593 25.1567 1.00014 25.2025 1.15277C25.172 1.4275 24.8972 1.45803 24.7141 1.5496C21.6921 3.32008 18.9295 5.4416 16.6096 8.06679C12.7786 12.4014 10.1229 17.3923 9.22242 23.1616C7.63509 33.3724 10.825 42.0416 18.0443 49.2762C19.3263 50.5582 19.4942 51.5808 18.4564 53.3208C17.2201 55.4118 15.3428 56.8312 13.3434 58.1285C13.1297 58.2659 12.9007 58.388 12.7176 58.5559C12.3971 58.8306 12.5955 58.968 12.8702 59.0901C12.9465 59.2122 12.9923 59.3801 13.0992 59.4717C14.8544 61.0285 16.518 62.6921 18.2427 64.2794C19.0669 65.0273 19.8605 65.8057 20.6389 66.5841C20.99 66.8741 21.5242 66.9809 21.6005 67.5151Z" fill="#0568FF"/>
<path d="M21.5701 67.5141C21.4935 66.98 20.957 66.8884 20.635 66.5679C19.8533 65.7742 19.0408 65.0111 18.2284 64.2632C16.4962 62.6759 14.8253 61.0122 13.0625 59.4554C12.9552 59.3638 12.9092 59.196 12.8325 59.0739C16.7414 59.837 20.5584 59.3181 24.314 58.1734C25.5864 57.7918 26.8587 57.4102 28.1463 57.0897C29.0201 56.8608 29.8938 56.8913 30.7829 57.1965C40.5016 60.5238 50.0976 60.2338 59.5404 56.0976C63.4187 54.4035 66.8677 52.0377 69.8722 49.0462C70.0255 48.8936 70.1328 48.6647 70.3934 48.6494C70.5314 48.8631 70.4547 49.092 70.4547 49.321C70.4547 52.2972 70.4547 55.2734 70.4547 58.2497C70.4547 63.4085 66.3772 67.5141 61.1806 67.5447C55.6621 67.5752 50.1436 67.5599 44.6251 67.5599C37.2365 67.5599 29.8632 67.5599 22.4745 67.5599C22.1833 67.5294 21.8767 67.5141 21.5701 67.5141Z" fill="#0559DE"/>
<path d="M36.2834 30.8995C36.2681 28.7474 37.4433 27.4501 39.107 27.5417C39.8548 27.5874 40.4653 27.908 40.9232 28.5185C41.7779 29.6784 41.7779 31.5863 40.9232 32.7462C39.9311 34.0741 37.9165 34.0741 36.9244 32.7462C36.4665 32.1357 36.2986 31.4337 36.2834 30.8995Z" fill="#FDFEFE"/>
<path d="M56.0938 30.6247C56.0938 28.7321 57.2537 27.4653 58.9021 27.5569C59.65 27.6027 60.2605 27.9079 60.7184 28.5185C61.5883 29.6784 61.5883 31.6473 60.7031 32.792C59.711 34.0741 57.7116 34.0588 56.75 32.7615C56.2769 32.1357 56.0938 31.4031 56.0938 30.6247Z" fill="#FDFEFE"/>
<path d="M30.4156 23.1356V20.6572H19.9565V23.6585H26.4139L19.7974 34.0721V36.5732H30.552V33.5719H23.7991L30.4156 23.1356Z" fill="#0559DE"/>
<path d="M40.6843 26.5461C39.7975 25.432 38.5697 24.8863 36.9781 24.8863C35.4547 24.8863 34.1587 25.4775 33.0673 26.6371C31.9987 27.7967 31.453 29.2064 31.453 30.8889C31.453 32.5715 31.9987 34.0039 33.0673 35.1635C34.1587 36.3231 35.4547 36.8915 36.9781 36.8915C38.5697 36.8915 39.7975 36.3459 40.6843 35.2317V36.5732H43.6174V25.2046H40.6843V26.5461ZM35.2728 33.2081C34.6817 32.5942 34.3861 31.8212 34.3861 30.8889C34.3861 29.9567 34.6817 29.1836 35.2728 28.5925C35.864 27.9786 36.6143 27.683 37.5238 27.683C38.4333 27.683 39.1836 27.9786 39.7748 28.5925C40.3887 29.1836 40.6843 29.9567 40.6843 30.8889C40.6843 31.8212 40.3887 32.5942 39.7748 33.2081C39.1836 33.7993 38.4333 34.0949 37.5238 34.0949C36.6143 34.0949 35.864 33.7993 35.2728 33.2081Z" fill="#0559DE"/>
<path d="M49.2102 36.5732V19.9751H46.2771V36.5732H49.2102Z" fill="#0559DE"/>
<path d="M61.5808 35.1635C62.7404 34.0039 63.3316 32.5715 63.3316 30.8889C63.3316 29.2064 62.7404 27.7967 61.5808 26.6371C60.4212 25.4775 58.9888 24.8863 57.3062 24.8863C55.6237 24.8863 54.1912 25.4775 53.0316 26.6371C51.872 27.7967 51.3036 29.2064 51.3036 30.8889C51.3036 32.5715 51.872 34.0039 53.0316 35.1635C54.1912 36.3231 55.6237 36.8915 57.3062 36.8915C58.9888 36.8915 60.4212 36.3231 61.5808 35.1635ZM55.1007 33.1399C54.5323 32.5487 54.2367 31.7984 54.2367 30.8889C54.2367 29.9794 54.5323 29.2291 55.1007 28.638C55.6919 28.0468 56.4195 27.7512 57.3062 27.7512C58.193 27.7512 58.9206 28.0468 59.5117 28.638C60.1029 29.2291 60.3985 29.9794 60.3985 30.8889C60.3985 31.7984 60.1029 32.5487 59.5117 33.1399C58.9206 33.7311 58.193 34.0267 57.3062 34.0267C56.4195 34.0267 55.6919 33.7311 55.1007 33.1399Z" fill="#0559DE"/>
</svg>
